<mxfile host="65bd71144e">
    <diagram id="xN8ktRZqWlzwsbu8suGQ" name="Page-1">
        <mxGraphModel dx="1641" dy="478" grid="1" gridSize="10" guides="1" tooltips="1" connect="1" arrows="1" fold="1" page="1" pageScale="1" pageWidth="827" pageHeight="1169" math="0" shadow="0">
            <root>
                <mxCell id="0"/>
                <mxCell id="1" parent="0"/>
                <mxCell id="4" style="edgeStyle=none;html=1;exitX=0.5;exitY=1;exitDx=0;exitDy=0;strokeColor=#000000;" parent="1" source="3" edge="1">
                    <mxGeometry relative="1" as="geometry">
                        <mxPoint x="220" y="160" as="targetPoint"/>
                    </mxGeometry>
                </mxCell>
                <mxCell id="3" value="&lt;font style=&quot;font-size: 24px&quot;&gt;Inicio&lt;/font&gt;" style="shape=ext;double=1;rounded=1;whiteSpace=wrap;html=1;fillColor=#242330;strokeColor=#000000;" parent="1" vertex="1">
                    <mxGeometry x="160" y="40" width="120" height="40" as="geometry"/>
                </mxCell>
                <mxCell id="6" style="edgeStyle=none;html=1;exitX=0.5;exitY=1;exitDx=0;exitDy=0;strokeColor=#000000;" parent="1" source="5" edge="1">
                    <mxGeometry relative="1" as="geometry">
                        <mxPoint x="220" y="270" as="targetPoint"/>
                    </mxGeometry>
                </mxCell>
                <mxCell id="8" value="" style="edgeStyle=none;html=1;strokeColor=#000000;" parent="1" source="5" target="7" edge="1">
                    <mxGeometry relative="1" as="geometry"/>
                </mxCell>
                <mxCell id="5" value="&lt;div style=&quot;color: rgb(187 , 187 , 187) ; background-color: rgb(38 , 35 , 53) ; font-family: &amp;#34;consolas&amp;#34; , &amp;#34;courier new&amp;#34; , monospace ; font-size: 14px ; line-height: 19px&quot;&gt;incializaciÃ³n &lt;span style=&quot;color: #ff7edb&quot;&gt;del&lt;/span&gt; micro &lt;/div&gt;" style="shape=ext;double=1;rounded=0;whiteSpace=wrap;html=1;fillColor=#242330;strokeColor=#000000;" parent="1" vertex="1">
                    <mxGeometry x="127.5" y="160" width="185" height="30" as="geometry"/>
                </mxCell>
                <mxCell id="9" style="edgeStyle=none;html=1;exitX=0.5;exitY=1;exitDx=0;exitDy=0;strokeColor=#000000;" parent="1" source="7" edge="1">
                    <mxGeometry relative="1" as="geometry">
                        <mxPoint x="220.28571428571445" y="360" as="targetPoint"/>
                    </mxGeometry>
                </mxCell>
                <mxCell id="7" value="&lt;div style=&quot;color: rgb(187 , 187 , 187) ; background-color: rgb(38 , 35 , 53) ; font-family: &amp;#34;consolas&amp;#34; , &amp;#34;courier new&amp;#34; , monospace ; font-size: 14px ; line-height: 19px&quot;&gt;&lt;span style=&quot;color: #fe4450&quot;&gt;uint8_t&lt;/span&gt; &lt;span style=&quot;color: #ff7edb&quot;&gt;Tabla_Digitos_7seg&lt;/span&gt;[] &lt;span style=&quot;color: #ffffff&quot;&gt;=&lt;/span&gt; { &lt;span style=&quot;color: #f97e72&quot;&gt;0x3f&lt;/span&gt;, &lt;span style=&quot;color: #f97e72&quot;&gt;0x06&lt;/span&gt;, &lt;span style=&quot;color: #f97e72&quot;&gt;0x5B&lt;/span&gt;, &lt;span style=&quot;color: #f97e72&quot;&gt;0x4f&lt;/span&gt;, &lt;span style=&quot;color: #f97e72&quot;&gt;0x66&lt;/span&gt;, &lt;span style=&quot;color: #f97e72&quot;&gt;0x6D&lt;/span&gt;, &lt;span style=&quot;color: #f97e72&quot;&gt;0x7C&lt;/span&gt;, &lt;span style=&quot;color: #f97e72&quot;&gt;0x07&lt;/span&gt;, &lt;span style=&quot;color: #f97e72&quot;&gt;0x7f&lt;/span&gt;, &lt;span style=&quot;color: #f97e72&quot;&gt;0x67&lt;/span&gt;};&lt;/div&gt;" style="shape=ext;double=1;rounded=0;whiteSpace=wrap;html=1;fillColor=#242330;strokeColor=#000000;" parent="1" vertex="1">
                    <mxGeometry x="-145" y="270" width="730" height="30" as="geometry"/>
                </mxCell>
                <mxCell id="11" style="edgeStyle=none;html=1;exitX=0.5;exitY=1;exitDx=0;exitDy=0;strokeColor=#000000;" parent="1" source="10" edge="1">
                    <mxGeometry relative="1" as="geometry">
                        <mxPoint x="220" y="440" as="targetPoint"/>
                    </mxGeometry>
                </mxCell>
                <mxCell id="10" value="&lt;div style=&quot;color: rgb(187 , 187 , 187) ; background-color: rgb(38 , 35 , 53) ; font-family: &amp;#34;consolas&amp;#34; , &amp;#34;courier new&amp;#34; , monospace ; font-size: 14px ; line-height: 19px&quot;&gt;&lt;div&gt;&amp;nbsp;&lt;span style=&quot;color: #fede5d&quot;&gt;char&lt;/span&gt; &lt;span style=&quot;color: #ff7edb&quot;&gt;cont&lt;/span&gt; &lt;span style=&quot;color: #ffffff&quot;&gt;=&lt;/span&gt; &lt;span style=&quot;color: #f97e72&quot;&gt;0&lt;/span&gt;;&lt;/div&gt;&lt;div&gt;&lt;/div&gt;&lt;/div&gt;" style="shape=ext;double=1;rounded=0;whiteSpace=wrap;html=1;fillColor=#242330;strokeColor=#000000;" parent="1" vertex="1">
                    <mxGeometry x="155" y="360" width="130" height="30" as="geometry"/>
                </mxCell>
                <mxCell id="13" style="edgeStyle=none;html=1;exitX=0.5;exitY=1;exitDx=0;exitDy=0;strokeColor=#000000;" parent="1" source="12" edge="1">
                    <mxGeometry relative="1" as="geometry">
                        <mxPoint x="220" y="520" as="targetPoint"/>
                    </mxGeometry>
                </mxCell>
                <mxCell id="12" value="&lt;div style=&quot;color: rgb(187 , 187 , 187) ; background-color: rgb(38 , 35 , 53) ; font-family: &amp;#34;consolas&amp;#34; , &amp;#34;courier new&amp;#34; , monospace ; font-size: 14px ; line-height: 19px&quot;&gt;&lt;div&gt;&amp;nbsp;&lt;span style=&quot;color: #fede5d&quot;&gt;volatile&lt;/span&gt; &lt;span style=&quot;color: #fe4450&quot;&gt;uint32_t&lt;/span&gt; &lt;span style=&quot;color: #ff7edb&quot;&gt;i&lt;/span&gt; &lt;span style=&quot;color: #ffffff&quot;&gt;=&lt;/span&gt; &lt;span style=&quot;color: #f97e72&quot;&gt;0&lt;/span&gt;;&lt;/div&gt;&lt;/div&gt;" style="shape=ext;double=1;rounded=0;whiteSpace=wrap;html=1;fillColor=#242330;strokeColor=#000000;" parent="1" vertex="1">
                    <mxGeometry x="120" y="440" width="200" height="30" as="geometry"/>
                </mxCell>
                <mxCell id="16" style="edgeStyle=none;html=1;exitX=0.5;exitY=1;exitDx=0;exitDy=0;entryX=0.5;entryY=0;entryDx=0;entryDy=0;strokeColor=#000000;" parent="1" source="15" target="17" edge="1">
                    <mxGeometry relative="1" as="geometry">
                        <mxPoint x="220" y="610" as="targetPoint"/>
                    </mxGeometry>
                </mxCell>
                <mxCell id="15" value="&lt;div style=&quot;color: rgb(187 , 187 , 187) ; background-color: rgb(38 , 35 , 53) ; font-family: &amp;#34;consolas&amp;#34; , &amp;#34;courier new&amp;#34; , monospace ; font-size: 14px ; line-height: 19px&quot;&gt;&lt;span style=&quot;color: #f97e72&quot;&gt;1&lt;/span&gt;&lt;span style=&quot;color: #fede5d&quot;&gt;==&lt;/span&gt;&lt;span style=&quot;color: #f97e72&quot;&gt;1&lt;/span&gt;&lt;/div&gt;" style="rhombus;whiteSpace=wrap;html=1;fillColor=#242330;strokeColor=#000000;" parent="1" vertex="1">
                    <mxGeometry x="180" y="520" width="80" height="50" as="geometry"/>
                </mxCell>
                <mxCell id="18" style="edgeStyle=none;html=1;exitX=1;exitY=0.5;exitDx=0;exitDy=0;entryX=0.5;entryY=0;entryDx=0;entryDy=0;strokeColor=#000000;" parent="1" source="17" target="19" edge="1">
                    <mxGeometry relative="1" as="geometry">
                        <mxPoint x="370" y="710" as="targetPoint"/>
                        <Array as="points">
                            <mxPoint x="379" y="640"/>
                        </Array>
                    </mxGeometry>
                </mxCell>
                <mxCell id="28" style="edgeStyle=none;html=1;exitX=0;exitY=0.5;exitDx=0;exitDy=0;strokeColor=#000000;" parent="1" source="17" edge="1">
                    <mxGeometry relative="1" as="geometry">
                        <mxPoint x="220" y="960" as="targetPoint"/>
                        <Array as="points">
                            <mxPoint x="60" y="640"/>
                            <mxPoint x="60" y="960"/>
                        </Array>
                    </mxGeometry>
                </mxCell>
                <mxCell id="17" value="&lt;div style=&quot;color: rgb(187 , 187 , 187) ; background-color: rgb(38 , 35 , 53) ; font-family: &amp;#34;consolas&amp;#34; , &amp;#34;courier new&amp;#34; , monospace ; font-size: 14px ; line-height: 19px&quot;&gt;&lt;span style=&quot;color: #36f9f6&quot;&gt;bot1&lt;/span&gt;&amp;nbsp;&lt;span style=&quot;color: #fede5d&quot;&gt;==&lt;/span&gt; &lt;span style=&quot;color: #f97e72&quot;&gt;0&lt;/span&gt;&lt;/div&gt;" style="rhombus;whiteSpace=wrap;html=1;fillColor=#242330;strokeColor=#000000;" parent="1" vertex="1">
                    <mxGeometry x="152.5" y="620" width="135" height="40" as="geometry"/>
                </mxCell>
                <mxCell id="21" style="edgeStyle=none;html=1;exitX=0.5;exitY=1;exitDx=0;exitDy=0;entryX=0.5;entryY=0;entryDx=0;entryDy=0;strokeColor=#000000;" parent="1" source="19" target="20" edge="1">
                    <mxGeometry relative="1" as="geometry"/>
                </mxCell>
                <mxCell id="19" value="&lt;div style=&quot;color: rgb(187 , 187 , 187) ; background-color: rgb(38 , 35 , 53) ; font-family: &amp;#34;consolas&amp;#34; , &amp;#34;courier new&amp;#34; , monospace ; font-size: 14px ; line-height: 19px&quot;&gt;&lt;span style=&quot;color: #fede5d&quot;&gt;for&lt;/span&gt; (&lt;span style=&quot;color: #ff7edb&quot;&gt;i&lt;/span&gt;&lt;span style=&quot;color: #ffffff&quot;&gt;=&lt;/span&gt;&lt;span style=&quot;color: #f97e72&quot;&gt;0&lt;/span&gt;; &lt;span style=&quot;color: #ff7edb&quot;&gt;i&lt;/span&gt;&lt;span style=&quot;color: #fede5d&quot;&gt;&amp;lt;&lt;/span&gt;&lt;span style=&quot;color: #f97e72&quot;&gt;50000&lt;/span&gt;; &lt;span style=&quot;color: #ff7edb&quot;&gt;i&lt;/span&gt; &lt;span style=&quot;color: #fede5d&quot;&gt;++&lt;/span&gt;);&lt;/div&gt;" style="rounded=0;whiteSpace=wrap;html=1;strokeColor=#000000;" parent="1" vertex="1">
                    <mxGeometry x="280" y="710" width="197.5" height="20" as="geometry"/>
                </mxCell>
                <mxCell id="25" style="edgeStyle=none;html=1;exitX=1;exitY=0.5;exitDx=0;exitDy=0;entryX=0.5;entryY=0;entryDx=0;entryDy=0;strokeColor=#000000;" parent="1" source="20" target="23" edge="1">
                    <mxGeometry relative="1" as="geometry">
                        <Array as="points">
                            <mxPoint x="520" y="780"/>
                        </Array>
                    </mxGeometry>
                </mxCell>
                <mxCell id="33" style="edgeStyle=none;html=1;exitX=0;exitY=0.5;exitDx=0;exitDy=0;strokeColor=#000000;" parent="1" source="20" edge="1">
                    <mxGeometry relative="1" as="geometry">
                        <mxPoint x="379" y="930" as="targetPoint"/>
                        <Array as="points">
                            <mxPoint x="240" y="780"/>
                            <mxPoint x="240" y="930"/>
                        </Array>
                    </mxGeometry>
                </mxCell>
                <mxCell id="20" value="&lt;div style=&quot;color: rgb(187 , 187 , 187) ; background-color: rgb(38 , 35 , 53) ; font-family: &amp;#34;consolas&amp;#34; , &amp;#34;courier new&amp;#34; , monospace ; font-size: 14px ; line-height: 19px&quot;&gt;&lt;span style=&quot;color: #36f9f6&quot;&gt;bot1&lt;/span&gt;&amp;nbsp;&lt;span style=&quot;color: #fede5d&quot;&gt;==&lt;/span&gt; &lt;span style=&quot;color: #f97e72&quot;&gt;0&lt;/span&gt;&lt;/div&gt;" style="rhombus;whiteSpace=wrap;html=1;fillColor=#242330;strokeColor=#000000;" parent="1" vertex="1">
                    <mxGeometry x="302.81" y="760" width="151.88" height="40" as="geometry"/>
                </mxCell>
                <mxCell id="26" style="edgeStyle=none;html=1;exitX=0.5;exitY=1;exitDx=0;exitDy=0;strokeColor=#000000;" parent="1" source="23" edge="1">
                    <mxGeometry relative="1" as="geometry">
                        <mxPoint x="520" y="900" as="targetPoint"/>
                    </mxGeometry>
                </mxCell>
                <mxCell id="23" value="&lt;div style=&quot;color: rgb(187 , 187 , 187) ; background-color: rgb(38 , 35 , 53) ; font-family: &amp;#34;consolas&amp;#34; , &amp;#34;courier new&amp;#34; , monospace ; font-size: 14px ; line-height: 19px&quot;&gt;&lt;div&gt;&lt;span style=&quot;color: #ff7edb&quot;&gt;cont&lt;/span&gt;&lt;span style=&quot;color: #fede5d&quot;&gt;++&lt;/span&gt;;&lt;/div&gt;&lt;/div&gt;" style="rounded=0;whiteSpace=wrap;html=1;fillColor=#242330;strokeColor=#000000;" parent="1" vertex="1">
                    <mxGeometry x="490" y="830" width="60" height="20" as="geometry"/>
                </mxCell>
                <mxCell id="34" style="edgeStyle=none;html=1;exitX=0.5;exitY=1;exitDx=0;exitDy=0;strokeColor=#000000;" parent="1" source="27" edge="1">
                    <mxGeometry relative="1" as="geometry">
                        <mxPoint x="380" y="930" as="targetPoint"/>
                        <Array as="points">
                            <mxPoint x="520" y="930"/>
                        </Array>
                    </mxGeometry>
                </mxCell>
                <mxCell id="27" value="&lt;span style=&quot;font-family: &amp;#34;consolas&amp;#34; , &amp;#34;courier new&amp;#34; , monospace ; font-size: 14px ; background-color: rgb(38 , 35 , 53) ; color: rgb(255 , 126 , 219)&quot;&gt;cont&lt;/span&gt;&lt;span style=&quot;font-family: &amp;#34;consolas&amp;#34; , &amp;#34;courier new&amp;#34; , monospace ; font-size: 14px ; background-color: rgb(38 , 35 , 53) ; color: rgb(255 , 255 , 255)&quot;&gt;%=&lt;/span&gt;&lt;span style=&quot;font-family: &amp;#34;consolas&amp;#34; , &amp;#34;courier new&amp;#34; , monospace ; font-size: 14px ; background-color: rgb(38 , 35 , 53) ; color: rgb(249 , 126 , 114)&quot;&gt;10&lt;/span&gt;&lt;span style=&quot;color: rgb(187 , 187 , 187) ; font-family: &amp;#34;consolas&amp;#34; , &amp;#34;courier new&amp;#34; , monospace ; font-size: 14px ; background-color: rgb(38 , 35 , 53)&quot;&gt;;&lt;/span&gt;" style="rounded=0;whiteSpace=wrap;html=1;strokeColor=#000000;fillColor=#242330;" parent="1" vertex="1">
                    <mxGeometry x="480" y="900" width="80" height="20" as="geometry"/>
                </mxCell>
                <mxCell id="32" value="" style="endArrow=classic;html=1;entryX=0.5;entryY=0;entryDx=0;entryDy=0;strokeColor=#000000;" parent="1" target="38" edge="1">
                    <mxGeometry width="50" height="50" relative="1" as="geometry">
                        <mxPoint x="220" y="960" as="sourcePoint"/>
                        <mxPoint x="220" y="1000" as="targetPoint"/>
                    </mxGeometry>
                </mxCell>
                <mxCell id="35" value="" style="endArrow=classic;html=1;strokeColor=#000000;" parent="1" edge="1">
                    <mxGeometry width="50" height="50" relative="1" as="geometry">
                        <mxPoint x="380" y="930" as="sourcePoint"/>
                        <mxPoint x="380" y="960" as="targetPoint"/>
                    </mxGeometry>
                </mxCell>
                <mxCell id="36" value="" style="endArrow=classic;html=1;strokeColor=#000000;" parent="1" edge="1">
                    <mxGeometry width="50" height="50" relative="1" as="geometry">
                        <mxPoint x="380" y="960" as="sourcePoint"/>
                        <mxPoint x="220" y="960" as="targetPoint"/>
                    </mxGeometry>
                </mxCell>
                <mxCell id="39" style="edgeStyle=none;html=1;exitX=1;exitY=0.5;exitDx=0;exitDy=0;strokeColor=#000000;" parent="1" source="38" edge="1">
                    <mxGeometry relative="1" as="geometry">
                        <mxPoint x="380" y="1110" as="targetPoint"/>
                        <Array as="points">
                            <mxPoint x="380" y="1035"/>
                        </Array>
                    </mxGeometry>
                </mxCell>
                <mxCell id="66" style="edgeStyle=none;html=1;exitX=0;exitY=0.5;exitDx=0;exitDy=0;strokeColor=#000000;" parent="1" source="38" edge="1">
                    <mxGeometry relative="1" as="geometry">
                        <mxPoint x="220" y="1760" as="targetPoint"/>
                        <Array as="points">
                            <mxPoint x="40" y="1035"/>
                            <mxPoint x="40" y="1760"/>
                        </Array>
                    </mxGeometry>
                </mxCell>
                <mxCell id="38" value="&lt;div style=&quot;color: rgb(187 , 187 , 187) ; background-color: rgb(38 , 35 , 53) ; font-family: &amp;#34;consolas&amp;#34; , &amp;#34;courier new&amp;#34; , monospace ; font-size: 14px ; line-height: 19px&quot;&gt;&lt;span style=&quot;color: #36f9f6&quot;&gt;bot2&lt;/span&gt; &lt;span style=&quot;color: #fede5d&quot;&gt;==&lt;/span&gt; &lt;span style=&quot;color: #f97e72&quot;&gt;0&lt;/span&gt;&lt;/div&gt;" style="rhombus;whiteSpace=wrap;html=1;fillColor=#242330;strokeColor=#000000;" parent="1" vertex="1">
                    <mxGeometry x="155" y="1010" width="130" height="50" as="geometry"/>
                </mxCell>
                <mxCell id="47" style="edgeStyle=none;html=1;exitX=0.5;exitY=1;exitDx=0;exitDy=0;strokeColor=#000000;" parent="1" source="40" edge="1">
                    <mxGeometry relative="1" as="geometry">
                        <mxPoint x="379" y="1180" as="targetPoint"/>
                    </mxGeometry>
                </mxCell>
                <mxCell id="40" value="&lt;div style=&quot;color: rgb(187 , 187 , 187) ; background-color: rgb(38 , 35 , 53) ; font-family: &amp;#34;consolas&amp;#34; , &amp;#34;courier new&amp;#34; , monospace ; font-size: 14px ; line-height: 19px&quot;&gt;&lt;span style=&quot;color: #fede5d&quot;&gt;for&lt;/span&gt; (&lt;span style=&quot;color: #ff7edb&quot;&gt;i&lt;/span&gt;&lt;span style=&quot;color: #ffffff&quot;&gt;=&lt;/span&gt;&lt;span style=&quot;color: #f97e72&quot;&gt;0&lt;/span&gt;; &lt;span style=&quot;color: #ff7edb&quot;&gt;i&lt;/span&gt;&lt;span style=&quot;color: #fede5d&quot;&gt;&amp;lt;&lt;/span&gt;&lt;span style=&quot;color: #f97e72&quot;&gt;50000&lt;/span&gt;; &lt;span style=&quot;color: #ff7edb&quot;&gt;i&lt;/span&gt; &lt;span style=&quot;color: #fede5d&quot;&gt;++&lt;/span&gt;);&lt;/div&gt;" style="rounded=0;whiteSpace=wrap;html=1;fillColor=#242330;strokeColor=#000000;" parent="1" vertex="1">
                    <mxGeometry x="280" y="1110" width="197.5" height="20" as="geometry"/>
                </mxCell>
                <mxCell id="41" value="V" style="text;html=1;align=center;verticalAlign=middle;resizable=0;points=[];autosize=1;rotation=0;strokeColor=#000000;" parent="1" vertex="1">
                    <mxGeometry x="320" y="620" width="20" height="20" as="geometry"/>
                </mxCell>
                <mxCell id="43" value="F" style="text;html=1;align=center;verticalAlign=middle;resizable=0;points=[];autosize=1;strokeColor=#000000;" parent="1" vertex="1">
                    <mxGeometry x="100" y="620" width="20" height="20" as="geometry"/>
                </mxCell>
                <mxCell id="44" value="F" style="text;html=1;align=center;verticalAlign=middle;resizable=0;points=[];autosize=1;strokeColor=#000000;" parent="1" vertex="1">
                    <mxGeometry x="260" y="760" width="20" height="20" as="geometry"/>
                </mxCell>
                <mxCell id="45" value="V" style="text;html=1;align=center;verticalAlign=middle;resizable=0;points=[];autosize=1;strokeColor=#000000;" parent="1" vertex="1">
                    <mxGeometry x="480" y="760" width="20" height="20" as="geometry"/>
                </mxCell>
                <mxCell id="46" value="V" style="text;html=1;align=center;verticalAlign=middle;resizable=0;points=[];autosize=1;strokeColor=#000000;" parent="1" vertex="1">
                    <mxGeometry x="320" y="1020" width="20" height="20" as="geometry"/>
                </mxCell>
                <mxCell id="50" style="edgeStyle=none;html=1;exitX=1;exitY=0.5;exitDx=0;exitDy=0;strokeColor=#000000;" parent="1" source="49" edge="1">
                    <mxGeometry relative="1" as="geometry">
                        <mxPoint x="520" y="1280" as="targetPoint"/>
                        <Array as="points">
                            <mxPoint x="520" y="1200"/>
                        </Array>
                    </mxGeometry>
                </mxCell>
                <mxCell id="61" style="edgeStyle=none;html=1;exitX=0;exitY=0.5;exitDx=0;exitDy=0;strokeColor=#000000;" parent="1" source="49" edge="1">
                    <mxGeometry relative="1" as="geometry">
                        <mxPoint x="379" y="1640" as="targetPoint"/>
                        <Array as="points">
                            <mxPoint x="240" y="1200"/>
                            <mxPoint x="240" y="1640"/>
                        </Array>
                    </mxGeometry>
                </mxCell>
                <mxCell id="49" value="&lt;div style=&quot;color: rgb(187 , 187 , 187) ; background-color: rgb(38 , 35 , 53) ; font-family: &amp;#34;consolas&amp;#34; , &amp;#34;courier new&amp;#34; , monospace ; font-size: 14px ; line-height: 19px&quot;&gt;&lt;span style=&quot;color: #36f9f6&quot;&gt;bot2&lt;/span&gt;&amp;nbsp;&lt;span style=&quot;color: #fede5d&quot;&gt;==&lt;/span&gt; &lt;span style=&quot;color: #f97e72&quot;&gt;0&lt;/span&gt;&lt;/div&gt;" style="rhombus;whiteSpace=wrap;html=1;fontColor=#ffffff;fillColor=#242330;strokeColor=#000000;" parent="1" vertex="1">
                    <mxGeometry x="302.81" y="1180" width="151.88" height="40" as="geometry"/>
                </mxCell>
                <mxCell id="54" style="edgeStyle=none;html=1;exitX=0.5;exitY=1;exitDx=0;exitDy=0;entryX=0.5;entryY=0;entryDx=0;entryDy=0;strokeColor=#000000;" parent="1" source="51" target="53" edge="1">
                    <mxGeometry relative="1" as="geometry"/>
                </mxCell>
                <mxCell id="51" value="&lt;div style=&quot;background-color: rgb(38 , 35 , 53) ; font-family: &amp;#34;consolas&amp;#34; , &amp;#34;courier new&amp;#34; , monospace ; font-size: 14px ; line-height: 19px&quot;&gt;&lt;div&gt;&lt;span style=&quot;color: rgb(255 , 126 , 219)&quot;&gt;cont&lt;/span&gt;&lt;font color=&quot;#fede5d&quot;&gt;--&lt;/font&gt;&lt;font color=&quot;#bbbbbb&quot;&gt;;&lt;/font&gt;&lt;/div&gt;&lt;/div&gt;" style="rounded=0;whiteSpace=wrap;html=1;fillColor=#242330;strokeColor=#000000;" parent="1" vertex="1">
                    <mxGeometry x="490" y="1280" width="60" height="20" as="geometry"/>
                </mxCell>
                <mxCell id="55" style="edgeStyle=none;html=1;exitX=1;exitY=0.5;exitDx=0;exitDy=0;strokeColor=#000000;" parent="1" source="53" edge="1">
                    <mxGeometry relative="1" as="geometry">
                        <mxPoint x="680" y="1420" as="targetPoint"/>
                        <Array as="points">
                            <mxPoint x="680" y="1360"/>
                        </Array>
                    </mxGeometry>
                </mxCell>
                <mxCell id="60" style="edgeStyle=none;html=1;exitX=0;exitY=0.5;exitDx=0;exitDy=0;strokeColor=#000000;" parent="1" source="53" edge="1">
                    <mxGeometry relative="1" as="geometry">
                        <mxPoint x="520" y="1530" as="targetPoint"/>
                        <Array as="points">
                            <mxPoint x="360" y="1360"/>
                            <mxPoint x="360" y="1530"/>
                        </Array>
                    </mxGeometry>
                </mxCell>
                <mxCell id="53" value="&#10;&#10;&lt;div style=&quot;color: rgb(187, 187, 187); background-color: rgb(38, 35, 53); font-family: consolas, &amp;quot;courier new&amp;quot;, monospace; font-weight: normal; font-size: 14px; line-height: 19px;&quot;&gt;&lt;div&gt;&lt;span style=&quot;color: #ff7edb&quot;&gt;cont&lt;/span&gt;&lt;span style=&quot;color: #fede5d&quot;&gt;&amp;gt;&lt;/span&gt;&lt;span style=&quot;color: #f97e72&quot;&gt;0&lt;/span&gt;&lt;/div&gt;&lt;/div&gt;&#10;&#10;" style="rhombus;whiteSpace=wrap;html=1;fillColor=#242330;strokeColor=#000000;" parent="1" vertex="1">
                    <mxGeometry x="454.69" y="1340" width="130" height="40" as="geometry"/>
                </mxCell>
                <mxCell id="56" value="V" style="text;html=1;align=center;verticalAlign=middle;resizable=0;points=[];autosize=1;strokeColor=#000000;" parent="1" vertex="1">
                    <mxGeometry x="480" y="1180" width="20" height="20" as="geometry"/>
                </mxCell>
                <mxCell id="57" value="F" style="text;html=1;align=center;verticalAlign=middle;resizable=0;points=[];autosize=1;strokeColor=#000000;" parent="1" vertex="1">
                    <mxGeometry x="640" y="1340" width="20" height="20" as="geometry"/>
                </mxCell>
                <mxCell id="59" style="edgeStyle=none;html=1;exitX=0.5;exitY=1;exitDx=0;exitDy=0;strokeColor=#000000;" parent="1" source="58" edge="1">
                    <mxGeometry relative="1" as="geometry">
                        <mxPoint x="520" y="1530" as="targetPoint"/>
                        <Array as="points">
                            <mxPoint x="680" y="1530"/>
                        </Array>
                    </mxGeometry>
                </mxCell>
                <mxCell id="58" value="&lt;div style=&quot;color: rgb(187 , 187 , 187) ; background-color: rgb(38 , 35 , 53) ; font-family: &amp;#34;consolas&amp;#34; , &amp;#34;courier new&amp;#34; , monospace ; font-size: 14px ; line-height: 19px&quot;&gt;&amp;nbsp;&lt;span style=&quot;color: #ff7edb&quot;&gt;cont&lt;/span&gt; &lt;span style=&quot;color: #ffffff&quot;&gt;=&lt;/span&gt; &lt;span style=&quot;color: #f97e72&quot;&gt;9&lt;/span&gt;;&lt;/div&gt;" style="rounded=0;whiteSpace=wrap;html=1;fillColor=#242330;strokeColor=#000000;" parent="1" vertex="1">
                    <mxGeometry x="640" y="1420" width="80" height="30" as="geometry"/>
                </mxCell>
                <mxCell id="64" value="" style="endArrow=classic;html=1;strokeColor=#000000;" parent="1" edge="1">
                    <mxGeometry width="50" height="50" relative="1" as="geometry">
                        <mxPoint x="520" y="1530" as="sourcePoint"/>
                        <mxPoint x="380" y="1640" as="targetPoint"/>
                        <Array as="points">
                            <mxPoint x="520" y="1640"/>
                        </Array>
                    </mxGeometry>
                </mxCell>
                <mxCell id="67" value="" style="endArrow=classic;html=1;strokeColor=#000000;" parent="1" edge="1">
                    <mxGeometry width="50" height="50" relative="1" as="geometry">
                        <mxPoint x="380" y="1640" as="sourcePoint"/>
                        <mxPoint x="380" y="1760" as="targetPoint"/>
                    </mxGeometry>
                </mxCell>
                <mxCell id="68" value="" style="endArrow=classic;html=1;strokeColor=#000000;" parent="1" edge="1">
                    <mxGeometry width="50" height="50" relative="1" as="geometry">
                        <mxPoint x="380" y="1760" as="sourcePoint"/>
                        <mxPoint x="220" y="1760" as="targetPoint"/>
                    </mxGeometry>
                </mxCell>
                <mxCell id="70" value="" style="endArrow=classic;html=1;strokeColor=#000000;" parent="1" edge="1">
                    <mxGeometry width="50" height="50" relative="1" as="geometry">
                        <mxPoint x="220" y="1760" as="sourcePoint"/>
                        <mxPoint x="220" y="1840" as="targetPoint"/>
                    </mxGeometry>
                </mxCell>
                <mxCell id="72" style="edgeStyle=none;html=1;exitX=0.5;exitY=1;exitDx=0;exitDy=0;strokeColor=#000000;" parent="1" source="71" edge="1">
                    <mxGeometry relative="1" as="geometry">
                        <mxPoint x="220" y="1920" as="targetPoint"/>
                    </mxGeometry>
                </mxCell>
                <mxCell id="71" value="&lt;div style=&quot;color: rgb(187 , 187 , 187) ; background-color: rgb(38 , 35 , 53) ; font-family: &amp;#34;consolas&amp;#34; , &amp;#34;courier new&amp;#34; , monospace ; font-size: 14px ; line-height: 19px&quot;&gt;&amp;nbsp;&lt;span style=&quot;color: #36f9f6&quot;&gt;PORTD&lt;/span&gt; &lt;span style=&quot;color: #ffffff&quot;&gt;&amp;amp;=&lt;/span&gt; &lt;span style=&quot;color: #f97e72&quot;&gt;0X03&lt;/span&gt;;&lt;/div&gt;" style="rounded=0;whiteSpace=wrap;html=1;fillColor=#242330;strokeColor=#000000;" parent="1" vertex="1">
                    <mxGeometry x="155" y="1840" width="130" height="30" as="geometry"/>
                </mxCell>
                <mxCell id="74" style="edgeStyle=none;html=1;exitX=0.5;exitY=1;exitDx=0;exitDy=0;strokeColor=#000000;" parent="1" source="73" edge="1">
                    <mxGeometry relative="1" as="geometry">
                        <mxPoint x="220" y="2000" as="targetPoint"/>
                    </mxGeometry>
                </mxCell>
                <mxCell id="73" value="&lt;div style=&quot;color: rgb(187 , 187 , 187) ; background-color: rgb(38 , 35 , 53) ; font-family: &amp;#34;consolas&amp;#34; , &amp;#34;courier new&amp;#34; , monospace ; font-size: 14px ; line-height: 19px&quot;&gt;&lt;span style=&quot;color: #36f9f6&quot;&gt;PORTD&lt;/span&gt; &lt;span style=&quot;color: #ffffff&quot;&gt;|=&lt;/span&gt; &lt;span style=&quot;color: #ff7edb&quot;&gt;Tabla_Digitos_7seg&lt;/span&gt;[&lt;span style=&quot;color: #f97e72&quot;&gt;10&lt;/span&gt;]&lt;span style=&quot;color: #fede5d&quot;&gt;&amp;lt;&amp;lt;&lt;/span&gt;&lt;span style=&quot;color: #f97e72&quot;&gt;2&lt;/span&gt;;&lt;/div&gt;" style="rounded=0;whiteSpace=wrap;html=1;fillColor=#242330;strokeColor=#000000;" parent="1" vertex="1">
                    <mxGeometry x="80" y="1920" width="280" height="30" as="geometry"/>
                </mxCell>
                <mxCell id="76" style="edgeStyle=none;html=1;exitX=0.5;exitY=1;exitDx=0;exitDy=0;strokeColor=#000000;" parent="1" source="75" edge="1">
                    <mxGeometry relative="1" as="geometry">
                        <mxPoint x="220" y="2080" as="targetPoint"/>
                    </mxGeometry>
                </mxCell>
                <mxCell id="75" value="&lt;div style=&quot;color: rgb(187 , 187 , 187) ; background-color: rgb(38 , 35 , 53) ; font-family: &amp;#34;consolas&amp;#34; , &amp;#34;courier new&amp;#34; , monospace ; font-size: 14px ; line-height: 19px&quot;&gt;&lt;span style=&quot;color: #36f9f6&quot;&gt;PORTB&lt;/span&gt; &lt;span style=&quot;color: #ffffff&quot;&gt;&amp;amp;=&lt;/span&gt; &lt;span style=&quot;color: #f97e72&quot;&gt;0XFC&lt;/span&gt;;&lt;/div&gt;" style="rounded=0;whiteSpace=wrap;html=1;fillColor=#242330;strokeColor=#000000;" parent="1" vertex="1">
                    <mxGeometry x="160" y="2000" width="120" height="30" as="geometry"/>
                </mxCell>
                <mxCell id="78" style="edgeStyle=none;html=1;exitX=0.5;exitY=1;exitDx=0;exitDy=0;strokeColor=#000000;" parent="1" source="77" target="79" edge="1">
                    <mxGeometry relative="1" as="geometry">
                        <mxPoint x="220" y="2160" as="targetPoint"/>
                    </mxGeometry>
                </mxCell>
                <mxCell id="77" value="&lt;div style=&quot;color: rgb(187 , 187 , 187) ; background-color: rgb(38 , 35 , 53) ; font-family: &amp;#34;consolas&amp;#34; , &amp;#34;courier new&amp;#34; , monospace ; font-size: 14px ; line-height: 19px&quot;&gt;&lt;span style=&quot;color: #36f9f6&quot;&gt;PORTB&lt;/span&gt; &lt;span style=&quot;color: #ffffff&quot;&gt;|=&lt;/span&gt; (&lt;span style=&quot;color: #ff7edb&quot;&gt;Tabla_Digitos_7seg&lt;/span&gt;[&lt;span style=&quot;color: #f97e72&quot;&gt;10&lt;/span&gt;]&lt;span style=&quot;color: #fede5d&quot;&gt;&amp;lt;&amp;lt;&lt;/span&gt;&lt;span style=&quot;color: #f97e72&quot;&gt;6&lt;/span&gt;)&lt;span style=&quot;color: #fede5d&quot;&gt;&amp;amp;&lt;/span&gt;&lt;span style=&quot;color: #f97e72&quot;&gt;0X01&lt;/span&gt;;&lt;/div&gt;" style="rounded=0;whiteSpace=wrap;html=1;fillColor=#242330;strokeColor=#000000;" parent="1" vertex="1">
                    <mxGeometry x="55" y="2080" width="330" height="30" as="geometry"/>
                </mxCell>
                <mxCell id="79" value="&lt;font style=&quot;font-size: 24px&quot;&gt;FÃ­n&lt;/font&gt;" style="ellipse;whiteSpace=wrap;html=1;fillColor=#242330;align=center;strokeColor=#000000;" parent="1" vertex="1">
                    <mxGeometry x="160" y="2160" width="120" height="80" as="geometry"/>
                </mxCell>
            </root>
        </mxGraphModel>
    </diagram>
</mxfile>